<svg width="40" height="40" viewBox="0 0 40 40" fill="none" xmlns="http://www.w3.org/2000/svg">
<g clip-path="url(#clip0)">
<path d="M39.9339 12.4947C39.35 6.06813 34.8013 1.40555 29.1087 1.40555C25.3161 1.40555 21.8436 3.44644 19.8897 6.7174C17.9534 3.40413 14.6232 1.40479 10.8915 1.40479C5.19959 1.40479 0.6501 6.06736 0.066989 12.4939C0.0208325 12.7777 -0.168409 14.2717 0.407009 16.708C1.23629 20.222 3.15178 23.4184 5.94502 25.9493L19.8804 38.5954L34.0551 25.9501C36.8483 23.4184 38.7638 20.2228 39.5931 16.708C40.1685 14.2725 39.9793 12.7785 39.9339 12.4947ZM38.0953 16.3556C37.3384 19.5651 35.5837 22.4891 33.0258 24.8061L19.8897 36.526L6.97893 24.8092C4.41647 22.4875 2.66252 19.5643 1.90479 16.3549C1.36014 14.0494 1.584 12.747 1.58477 12.7385L1.59631 12.6608C2.09634 7.03049 6.00502 2.94334 10.8915 2.94334C14.4971 2.94334 17.6711 5.15885 19.1773 8.72444L19.8858 10.4038L20.5943 8.72444C22.0767 5.21347 25.4185 2.9441 29.1094 2.9441C33.9951 2.9441 37.9046 7.03126 38.4146 12.7347C38.4161 12.747 38.64 14.0501 38.0953 16.3556Z" fill="black"/>
</g>
<defs>
<clipPath id="clip0">
<rect width="40" height="40" fill="white"/>
</clipPath>
</defs>
</svg>
