<svg width="22" height="16" viewBox="0 0 22 16" fill="none" xmlns="http://www.w3.org/2000/svg">
<g clip-path="url(#clip0)">
<path d="M20.5298 2.08033C19.7925 1.22352 18.431 0.874023 15.8311 0.874023H6.39321C3.73372 0.874023 2.34926 1.24607 1.61466 2.15826C0.898438 3.04767 0.898438 4.35813 0.898438 6.17183V9.62876C0.898438 13.1425 1.74823 14.9265 6.39321 14.9265H15.8311C18.0858 14.9265 19.3352 14.6182 20.1435 13.862C20.9724 13.0866 21.326 11.8206 21.326 9.62876V6.17183C21.326 4.25913 21.2707 2.94094 20.5298 2.08033ZM14.0131 8.37756L9.72731 10.567C9.63151 10.6159 9.52672 10.6402 9.42208 10.6402C9.3036 10.6402 9.18539 10.609 9.08068 10.5471C8.88352 10.4303 8.76313 10.2214 8.76313 9.9961V5.63129C8.76313 5.40636 8.88319 5.19767 9.07996 5.08083C9.27679 4.96399 9.52159 4.956 9.7258 5.0597L14.0116 7.23501C14.2296 7.34568 14.3665 7.56571 14.3668 7.80577C14.3671 8.04604 14.2308 8.26638 14.0131 8.37756Z" fill="#616567"/>
</g>
<defs>
<clipPath id="clip0">
<rect width="20.4276" height="14.7135" fill="white" transform="translate(0.898438 0.874023)"/>
</clipPath>
</defs>
</svg>
