<svg width="21" height="17" viewBox="0 0 21 17" fill="none" xmlns="http://www.w3.org/2000/svg">
<g clip-path="url(#clip0)">
<path d="M20.3837 2.64879C19.6224 2.96891 18.8608 3.16882 18.0999 3.24912C18.9593 2.74499 19.5408 2.03278 19.8437 1.11255C19.0574 1.56859 18.2185 1.88059 17.3263 2.04871C16.5403 1.2325 15.5745 0.824219 14.4282 0.824219C13.3313 0.824219 12.3962 1.20227 11.6222 1.95853C10.8487 2.71475 10.4619 3.62894 10.4619 4.7012C10.4619 4.98922 10.4946 5.28542 10.5602 5.58947C8.93921 5.50946 7.41865 5.11137 5.99822 4.39516C4.57786 3.67888 3.37243 2.7246 2.38193 1.5323C2.02171 2.13234 1.84155 2.78463 1.84155 3.48881C1.84155 4.153 2.00116 4.76926 2.32059 5.33743C2.63981 5.90551 3.06969 6.36558 3.61002 6.71773C2.97137 6.69368 2.37379 6.52959 1.81721 6.2255V6.27351C1.81721 7.20984 2.11806 8.03191 2.71968 8.74033C3.32138 9.44867 4.08072 9.89453 4.99751 10.0787C4.65365 10.1666 4.30566 10.2106 3.9537 10.2106C3.72446 10.2106 3.47475 10.1906 3.20466 10.1509C3.45841 10.927 3.92506 11.5649 4.60444 12.0654C5.28395 12.5654 6.05348 12.8232 6.91307 12.8396C5.47234 13.9438 3.831 14.4958 1.98907 14.4958C1.637 14.4958 1.31782 14.4802 1.03125 14.448C2.87322 15.6082 4.90341 16.1883 7.12193 16.1883C8.52997 16.1883 9.85209 15.9704 11.0878 15.5342C12.3242 15.0982 13.3801 14.514 14.2561 13.7816C15.1319 13.0495 15.8872 12.2072 16.5217 11.255C17.156 10.3027 17.6286 9.30849 17.94 8.27222C18.2509 7.23574 18.4065 6.19767 18.4065 5.15719C18.4065 4.9331 18.4024 4.76514 18.3941 4.65305C19.1721 4.10116 19.8351 3.43285 20.3837 2.64879Z" fill="#616567"/>
</g>
<defs>
<clipPath id="clip0">
<rect width="20.4276" height="15.7645" fill="white" transform="translate(0.244141 0.824219)"/>
</clipPath>
</defs>
</svg>
