<svg width="23" height="14" viewBox="0 0 23 14" fill="none" xmlns="http://www.w3.org/2000/svg">
<g clip-path="url(#clip0)">
<path d="M22.2755 11.8071C22.2495 11.7522 22.2252 11.7067 22.2026 11.6703C21.8295 11.0135 21.1166 10.2073 20.0643 9.2515L20.042 9.22961L20.0309 9.21888L20.0196 9.20788H20.0084C19.5307 8.76281 19.2282 8.46356 19.1016 8.31035C18.8699 8.0185 18.818 7.72307 18.9446 7.42374C19.0341 7.19759 19.3703 6.71997 19.9522 5.99027C20.2583 5.60353 20.5008 5.29359 20.6799 5.06008C21.9712 3.38192 22.5311 2.30956 22.3593 1.84257L22.2926 1.73344C22.2478 1.66774 22.1321 1.60764 21.9456 1.55282C21.7589 1.49812 21.5201 1.48908 21.229 1.52553L18.0047 1.5473C17.9525 1.52921 17.8779 1.5309 17.7808 1.55282C17.6837 1.57475 17.6351 1.58575 17.6351 1.58575L17.579 1.61316L17.5345 1.64608C17.4972 1.66786 17.4561 1.70615 17.4113 1.76089C17.3666 1.81543 17.3294 1.87944 17.2995 1.95239C16.9485 2.8352 16.5494 3.65599 16.1015 4.41473C15.8253 4.86715 15.5717 5.25924 15.3401 5.59123C15.1087 5.92311 14.9147 6.16762 14.758 6.32436C14.6012 6.48125 14.4597 6.60694 14.3325 6.70189C14.2056 6.79687 14.1088 6.837 14.0416 6.82232C13.9744 6.80765 13.911 6.79308 13.851 6.77851C13.7466 6.71281 13.6627 6.62346 13.5994 6.51038C13.5357 6.39731 13.4929 6.25498 13.4706 6.08352C13.4482 5.91195 13.4351 5.76437 13.4313 5.64029C13.4278 5.51637 13.4294 5.34108 13.437 5.11493C13.4447 4.88865 13.4482 4.73556 13.4482 4.6553C13.4482 4.37801 13.4538 4.07706 13.4649 3.7524C13.4761 3.42772 13.4853 3.17049 13.4929 2.98098C13.5006 2.79127 13.5041 2.59058 13.5041 2.37898C13.5041 2.16739 13.4909 2.00145 13.4649 1.88102C13.4392 1.76073 13.3997 1.64398 13.3477 1.53078C13.2953 1.41771 13.2186 1.33023 13.1181 1.26814C13.0174 1.20611 12.8921 1.1569 12.7431 1.12033C12.3475 1.03282 11.8437 0.985479 11.2315 0.97812C9.84335 0.963554 8.95138 1.05118 8.55579 1.24088C8.39906 1.32103 8.25722 1.43055 8.13041 1.56907C7.99603 1.72965 7.97729 1.81727 8.0743 1.83168C8.52219 1.89727 8.83926 2.05416 9.02588 2.3022L9.09313 2.43364C9.14544 2.52847 9.19767 2.69637 9.24994 2.93709C9.30214 3.1778 9.33582 3.4441 9.35064 3.73579C9.38789 4.26849 9.38789 4.72448 9.35064 5.10381C9.31327 5.48329 9.27798 5.77871 9.2443 5.9903C9.21061 6.20189 9.16026 6.37334 9.09313 6.50463C9.02588 6.63596 8.98114 6.71622 8.95871 6.74535C8.93631 6.77449 8.91765 6.79285 8.90283 6.80005C8.80581 6.83639 8.70492 6.85491 8.60049 6.85491C8.49592 6.85491 8.3691 6.80377 8.21985 6.70158C8.07066 6.59939 7.9158 6.45902 7.7553 6.28024C7.5948 6.10143 7.4138 5.85154 7.2122 5.53055C7.01076 5.20957 6.80176 4.8302 6.5853 4.39246L6.40621 4.07499C6.29426 3.87076 6.14133 3.57339 5.94727 3.18313C5.75309 2.79273 5.58146 2.41508 5.43225 2.05028C5.3726 1.89708 5.283 1.78043 5.1636 1.70017L5.10757 1.66724C5.07031 1.63811 5.01051 1.60718 4.92848 1.57421C4.84633 1.54129 4.76061 1.51767 4.67096 1.50314L1.60338 1.52492C1.28991 1.52492 1.07722 1.59434 0.965223 1.73298L0.920403 1.79857C0.898012 1.8351 0.886719 1.89344 0.886719 1.97374C0.886719 2.054 0.909109 2.15252 0.95393 2.26916C1.40174 3.29798 1.88873 4.29019 2.41489 5.24594C2.94105 6.2017 3.39827 6.97159 3.78628 7.55491C4.17437 8.13866 4.56996 8.6896 4.97302 9.20746C5.37609 9.72551 5.6429 10.0575 5.77344 10.2033C5.90414 10.3495 6.00679 10.4587 6.08142 10.5317L6.36136 10.7943C6.54049 10.9694 6.80352 11.1791 7.1506 11.4235C7.49775 11.6681 7.88208 11.9087 8.30378 12.146C8.72554 12.383 9.21623 12.5763 9.77606 12.7259C10.3358 12.8755 10.8807 12.9356 11.4106 12.9066H12.6982C12.9592 12.8845 13.157 12.8044 13.2915 12.6658L13.3361 12.611C13.3661 12.5674 13.3941 12.4998 13.4199 12.4087C13.4461 12.3176 13.4592 12.2171 13.4592 12.1078C13.4515 11.7941 13.4759 11.5114 13.5318 11.2597C13.5876 11.0081 13.6512 10.8184 13.7224 10.6907C13.7934 10.563 13.8736 10.4553 13.963 10.368C14.0524 10.2805 14.1162 10.2275 14.1536 10.2092C14.1908 10.1908 14.2205 10.1784 14.2428 10.1709C14.4219 10.1126 14.6328 10.1691 14.8755 10.3407C15.1182 10.5121 15.3458 10.7238 15.5586 10.9755C15.7713 11.2273 16.0269 11.5099 16.3254 11.8235C16.6241 12.1373 16.8853 12.3705 17.109 12.524L17.3329 12.6553C17.4824 12.7429 17.6765 12.8232 17.9154 12.8961C18.1539 12.969 18.3627 12.9873 18.5421 12.9509L21.4081 12.9071C21.6916 12.9071 21.9121 12.8612 22.0685 12.7702C22.2254 12.679 22.3185 12.5785 22.3485 12.4693C22.3785 12.3599 22.3801 12.2358 22.3542 12.097C22.3276 11.9585 22.3015 11.8617 22.2755 11.8071Z" fill="#616567"/>
</g>
<defs>
<clipPath id="clip0">
<rect width="21.5027" height="12.6116" fill="white" transform="translate(0.886719 0.976562)"/>
</clipPath>
</defs>
</svg>
