<svg width="14" height="23" viewBox="0 0 14 23" fill="none" xmlns="http://www.w3.org/2000/svg">
<g clip-path="url(#clip0)">
<path d="M12.9177 0.675491L9.90619 0.670898C6.52287 0.670898 4.33642 2.80278 4.33642 6.10243V8.60673H1.30849C1.04684 8.60673 0.834961 8.80832 0.834961 9.05699V12.6854C0.834961 12.9341 1.04708 13.1355 1.30849 13.1355H4.33642V22.2912C4.33642 22.5399 4.5483 22.7412 4.80995 22.7412H8.76053C9.02218 22.7412 9.23406 22.5396 9.23406 22.2912V13.1355H12.7744C13.0361 13.1355 13.2479 12.9341 13.2479 12.6854L13.2494 9.05699C13.2494 8.93759 13.1994 8.82326 13.1107 8.73875C13.022 8.65426 12.9013 8.60673 12.7756 8.60673H9.23406V6.4838C9.23406 5.46344 9.48991 4.94545 10.8885 4.94545L12.9172 4.94477C13.1786 4.94477 13.3905 4.74317 13.3905 4.49474V1.12552C13.3905 0.877314 13.1788 0.67595 12.9177 0.675491Z" fill="#616567"/>
</g>
<defs>
<clipPath id="clip0">
<rect width="12.9016" height="22.0703" fill="white" transform="translate(0.834961 0.670898)"/>
</clipPath>
</defs>
</svg>
