<svg width="40" height="40" viewBox="0 0 40 40" fill="none" xmlns="http://www.w3.org/2000/svg">
<path d="M31.8518 14.8985V10.7407C31.8518 4.81852 26.5347 0 19.9999 0C13.4651 0 8.14806 4.81852 8.14806 10.7407V14.8985C5.6288 15.3326 3.70361 17.5281 3.70361 20.1704V34.6459C3.70361 37.5978 6.10584 40 9.05843 40H30.9414C33.894 40 36.2962 37.5978 36.2962 34.6452V20.1696C36.2962 17.5281 34.371 15.3326 31.8518 14.8985ZM9.62954 10.7407C9.62954 5.63481 14.2814 1.48148 19.9999 1.48148C25.7184 1.48148 30.3703 5.63481 30.3703 10.7407V14.8148H9.62954V10.7407ZM34.8147 34.6452C34.8147 36.7807 33.0769 38.5185 30.9414 38.5185H9.05843C6.92287 38.5185 5.18509 36.7807 5.18509 34.6452V20.1696C5.18509 18.0341 6.92287 16.2963 9.05843 16.2963H30.9414C33.0769 16.2963 34.8147 18.0341 34.8147 20.1696V34.6452Z" fill="black"/>
<path d="M20.0003 20.7407C18.3662 20.7407 17.0374 22.0696 17.0374 23.7037V28.1481C17.0374 29.7822 18.3662 31.1111 20.0003 31.1111C21.6344 31.1111 22.9633 29.7822 22.9633 28.1481V23.7037C22.9633 22.0696 21.6344 20.7407 20.0003 20.7407ZM21.4818 28.1481C21.4818 28.9652 20.8174 29.6296 20.0003 29.6296C19.1833 29.6296 18.5188 28.9652 18.5188 28.1481V23.7037C18.5188 22.8866 19.1833 22.2222 20.0003 22.2222C20.8174 22.2222 21.4818 22.8866 21.4818 23.7037V28.1481Z" fill="black"/>
</svg>
