<svg width="506" height="87" viewBox="0 0 506 87" fill="none" xmlns="http://www.w3.org/2000/svg">
<g clip-path="url(#clip0)">
<path d="M75.334 55.398H38.023L31.54 70.415C29.937 74.127 29.141 76.905 29.141 78.743C29.141 80.205 29.831 81.477 31.222 82.585C32.613 83.694 35.612 85.826 40.216 86.161V87.338H10V86.23C14.006 85.519 16.585 83.104 17.763 81.969C20.161 79.701 24.136 75.077 27.061 68.125L56.417 0.05L66.469 0L95.459 69.066C98.141 75.474 100.566 79.633 102.751 81.537C104.941 83.437 107.988 85.77 111.897 85.997V87.337H74.133V86.114C77.946 85.935 80.517 83.916 81.846 82.833C83.198 81.758 83.868 80.436 83.868 78.873C83.868 76.819 82.921 73.553 81.047 69.066L75.334 55.398ZM73.166 50.179L56.988 11.515L40.264 50.179H73.166Z" fill="#131313"/>
<path d="M459.209 55.398H421.9L415.418 70.415C413.811 74.127 413.02 76.905 413.02 78.743C413.02 80.205 413.708 81.477 415.106 82.585C416.483 83.694 419.493 85.826 424.102 86.161V87.338H393.879V86.23C397.873 85.519 400.459 83.104 401.633 81.969C404.039 79.701 408.014 75.077 410.934 68.125L440.285 0.05L450.346 0L479.338 69.066C482.02 75.474 484.44 79.633 486.647 81.537C488.827 83.437 491.868 85.77 495.77 85.997V87.337H458.008V86.114C461.819 85.935 464.385 83.916 465.74 82.833C467.076 81.758 467.748 80.436 467.748 78.873C467.748 76.819 466.801 73.553 464.922 69.066L459.209 55.398ZM457.041 50.179L440.865 11.515L424.136 50.179H457.041Z" fill="#131313"/>
<path d="M234.158 3.60509C232.311 4.73909 230.899 6.48409 229.91 8.81309C229.339 10.0291 228.97 12.2701 228.804 15.5361C228.637 18.8101 228.473 22.2991 228.318 26.0201C228.14 29.4871 228.013 33.5871 227.88 38.3101C227.753 43.0261 227.689 48.0981 227.689 53.5011C227.689 55.7651 227.689 58.3511 227.689 61.2531C227.689 64.0801 227.716 66.9651 227.753 69.9121C227.799 72.8631 227.819 75.7871 227.819 78.6921C227.819 81.6011 227.819 84.2301 227.819 86.5701C227.819 86.8931 226.135 86.9171 225.849 86.8931C225.222 86.8271 224.854 86.8511 224.437 86.7281C223.809 86.5371 223.508 86.4271 222.706 85.5911C214.387 76.9281 209.358 71.2711 203.608 64.6491C197.851 58.0271 192.37 51.7071 187.156 45.6911C181.939 39.6791 176.821 33.7981 171.806 28.0681C166.8 22.3331 161.498 16.4021 155.907 10.2731V61.4101C155.907 65.5381 156.011 69.2491 156.221 72.5641C156.431 75.8701 156.945 78.3441 157.763 79.9591C158.666 81.8091 160.079 83.2131 162.004 84.1321C163.931 85.0671 166.59 85.7301 169.967 86.1411V87.3381H137.979V86.1401C139.96 85.8941 141.93 85.3881 143.905 84.6231C145.873 83.8491 147.44 82.5841 148.582 80.8021C149.732 79.1061 150.47 76.5991 150.808 73.2901C151.133 69.9761 151.371 66.0251 151.539 61.4101C151.705 57.9521 151.827 53.8451 151.917 49.1241C151.994 44.4041 152.031 39.3191 152.031 33.9081C152.031 31.5511 152.031 29.6361 152.031 28.0841C152.031 26.5571 152.031 25.0641 152.031 23.6061C152.031 22.1511 152.031 20.6651 152.031 19.1241C152.031 17.5121 151.993 15.5281 151.917 13.1801C151.662 10.8311 151.089 8.92109 150.181 7.43009C149.277 5.93609 148.211 4.76309 146.979 3.91109C145.749 3.06909 144.416 2.45409 142.972 2.09209C141.542 1.73609 140.159 1.47609 138.844 1.30509V0.0900879H165.526L223.944 67.1911V26.0211C223.944 22.7891 223.894 19.7031 223.821 16.7611C223.735 13.8021 223.371 11.4871 222.705 9.77709C221.888 7.52409 220.429 5.68109 218.334 4.28109C216.238 2.87009 213.219 1.87909 209.283 1.30509V0.0900879H241.496V1.30409C238.469 1.71909 236.011 2.47909 234.158 3.60509Z" fill="#131313"/>
<path d="M363.557 3.7391C361.712 4.8621 360.292 6.5901 359.312 8.9471C358.732 10.1521 358.368 12.3951 358.196 15.6561C358.034 18.9341 357.872 22.4291 357.708 26.1381C357.537 29.6091 357.404 33.7021 357.281 38.4321C357.15 43.1621 357.088 48.2201 357.088 53.6391C357.088 55.8771 357.088 58.4731 357.088 61.3921C357.088 64.2051 357.113 67.0871 357.15 70.0431C357.189 72.9971 357.216 75.9131 357.216 78.8151C357.216 81.7201 357.216 84.3461 357.216 86.6911C357.216 87.0181 355.528 87.0431 355.255 87.0181C354.618 86.9581 354.258 86.9801 353.843 86.8511C353.212 86.6601 352.896 86.5531 352.107 85.7171C343.783 77.0501 338.752 71.3981 333.004 64.7771C327.251 58.1501 321.768 51.8301 316.553 45.8151C311.335 39.8011 306.217 33.9241 301.206 28.1941C296.192 22.4741 290.893 16.5341 285.304 10.3901V61.5331C285.304 65.6581 285.408 69.3721 285.611 72.6901C285.818 76.0101 286.328 78.4651 287.156 80.0871C288.052 81.9401 289.472 83.3281 291.404 84.2631C293.338 85.1891 295.994 85.8591 299.353 86.2551V87.4721H267.384V86.2551C269.361 86.0211 271.322 85.5121 273.289 84.7341C275.268 83.9721 276.828 82.7091 277.974 80.9221C279.132 79.2331 279.874 76.7301 280.193 73.4141C280.536 70.0981 280.767 66.1461 280.938 61.5341C281.094 58.0691 281.226 53.9661 281.31 49.2401C281.385 44.5151 281.433 39.4411 281.433 34.0331C281.433 31.6871 281.433 29.7531 281.433 28.2211C281.433 26.6811 281.433 25.1841 281.433 23.7361C281.433 22.2841 281.433 20.7881 281.433 19.2401C281.433 17.6291 281.385 15.6501 281.31 13.3051C281.058 10.9821 280.495 9.0511 279.582 7.5581C278.681 6.0581 277.615 4.8881 276.376 4.0441C275.14 3.1991 273.809 2.5901 272.372 2.2211C270.935 1.8681 269.564 1.5921 268.245 1.4291V0.225098H294.914L353.34 67.3151V26.1391C353.34 22.9151 353.294 19.8311 353.22 16.8751C353.132 13.9301 352.76 11.6101 352.107 9.9151C351.274 7.6541 349.818 5.8211 347.717 4.3981C345.633 2.9871 342.614 2.0041 338.668 1.4311V0.225098H370.899V1.4301C367.859 1.8481 365.409 2.6021 363.557 3.7391Z" fill="#131313"/>
</g>
<defs>
<clipPath id="clip0">
<rect width="506" height="87" fill="white"/>
</clipPath>
</defs>
</svg>
