<svg width="40" height="40" viewBox="0 0 40 40" fill="none" xmlns="http://www.w3.org/2000/svg">
<path d="M0 8.42237H10.7081C10.1361 7.60483 9.82456 6.6336 9.82456 5.61044C9.82456 4.29465 10.334 3.06097 11.2582 2.13676C13.1733 0.221667 16.2898 0.221667 18.2049 2.13676L20.1902 4.12202L22.1747 2.13676C24.0898 0.221667 27.2063 0.221667 29.1214 2.13676C30.0456 3.06097 30.5551 4.29465 30.5551 5.61044C30.5551 6.6336 30.2435 7.60483 29.6716 8.42237H40V18.2469H36.4912V39.2996H2.80702V18.2469H0V8.42237ZM17.2126 3.12904C15.8442 1.76132 13.6182 1.76132 12.2505 3.12904C11.5916 3.78869 11.2281 4.66939 11.2281 5.61044C11.2281 6.55079 11.5916 7.43219 12.2505 8.09114L12.5818 8.42237H22.506L19.1979 5.1143L17.2126 3.12904ZM28.1291 8.09114C28.7881 7.43219 29.1516 6.55079 29.1516 5.61044C29.1516 4.66939 28.7881 3.78869 28.1291 3.12904C26.7607 1.76132 24.5347 1.76132 23.167 3.12904L21.1825 5.1143L23.6632 7.595C23.8084 7.74027 23.9418 7.90448 24.0709 8.07851C24.1088 8.12974 24.146 8.18518 24.1825 8.23921C24.2246 8.30097 24.2688 8.35641 24.3088 8.42167H27.7979L28.1291 8.09114ZM38.5965 16.8434V9.82588H28.3796H25.0582H23.4758H20.3509V16.8434H36.4912H38.5965ZM20.3509 18.2469V26.668H35.0877V18.2469H20.3509ZM35.0877 28.0715H20.3509V37.8961H35.0877V28.0715ZM18.9474 37.8961V28.0715H4.21053V37.8961H18.9474ZM4.21053 26.668H18.9474V18.2469H4.21053V26.668ZM1.40351 16.8434H2.80702H18.9474V9.82588H12.0007H1.40351V16.8434Z" fill="black"/>
</svg>
