<svg width="40" height="40" fill="none" xmlns="http://www.w3.org/2000/svg"><g clip-path="url(#clip0)"><path d="M39.934 12.495C39.35 6.068 34.8 1.405 29.109 1.405c-3.793 0-7.265 2.041-9.22 5.312-1.936-3.313-5.266-5.312-8.997-5.312C5.2 1.405.65 6.067.067 12.494c-.046.284-.235 1.778.34 4.214.83 3.514 2.745 6.71 5.538 9.241L19.88 38.595 34.055 25.95c2.793-2.532 4.709-5.727 5.538-9.242.575-2.435.386-3.93.34-4.213zm-1.839 3.86c-.757 3.21-2.511 6.134-5.07 8.451L19.89 36.526 6.979 24.809c-2.563-2.322-4.316-5.245-5.074-8.454-.545-2.306-.321-3.608-.32-3.617l.011-.077c.5-5.63 4.409-9.718 9.296-9.718 3.605 0 6.78 2.216 8.285 5.781l.709 1.68.708-1.68c1.483-3.51 4.825-5.78 8.515-5.78 4.886 0 8.796 4.087 9.306 9.79.001.013.225 1.316-.32 3.622z" fill="#000"/></g><defs><clipPath id="clip0"><path fill="#fff" d="M0 0h40v40H0z"/></clipPath></defs></svg>