<svg width="23" height="14" fill="none" xmlns="http://www.w3.org/2000/svg"><g clip-path="url(#clip0)"><path d="M22.276 11.807c-.026-.055-.05-.1-.073-.137-.373-.656-1.086-1.463-2.139-2.418l-.022-.022-.011-.011-.011-.011h-.012c-.477-.445-.78-.744-.906-.898-.232-.292-.284-.587-.157-.886.09-.226.425-.704 1.007-1.434.306-.386.549-.696.728-.93 1.291-1.678 1.851-2.75 1.68-3.217l-.067-.11c-.045-.065-.16-.125-.347-.18-.187-.055-.426-.064-.717-.027l-3.224.021a.427.427 0 00-.224.006l-.146.033-.056.027-.044.033a.494.494 0 00-.124.115.746.746 0 00-.112.191c-.35.883-.75 1.704-1.197 2.463-.277.452-.53.844-.762 1.176a5.68 5.68 0 01-.582.733 4.019 4.019 0 01-.425.378c-.127.095-.224.135-.291.12a8.407 8.407 0 01-.191-.043.734.734 0 01-.252-.269 1.177 1.177 0 01-.128-.426 4.576 4.576 0 01-.04-.444 9.147 9.147 0 01.006-.525c.008-.226.011-.38.011-.46 0-.277.006-.578.017-.903.011-.324.02-.582.028-.771.008-.19.011-.39.011-.602a2.39 2.39 0 00-.04-.498 1.677 1.677 0 00-.116-.35.594.594 0 00-.23-.263 1.31 1.31 0 00-.375-.148c-.396-.087-.9-.135-1.511-.142-1.389-.014-2.28.073-2.676.263-.157.08-.299.19-.426.328-.134.16-.153.248-.056.263.448.065.765.222.952.47l.067.132c.052.094.105.262.157.503.052.24.086.507.1.799.038.532.038.988 0 1.368-.037.38-.072.675-.106.886a1.745 1.745 0 01-.15.515 2.155 2.155 0 01-.135.24.19.19 0 01-.056.055.856.856 0 01-.303.055c-.104 0-.23-.051-.38-.153a2.664 2.664 0 01-.465-.422 5.636 5.636 0 01-.543-.75c-.201-.32-.41-.7-.627-1.138l-.179-.317a27.057 27.057 0 01-.459-.892c-.194-.39-.366-.768-.515-1.133a.723.723 0 00-.268-.35l-.056-.033a.773.773 0 00-.18-.093 1.21 1.21 0 00-.257-.07l-3.068.02c-.313 0-.526.07-.638.209l-.045.066a.347.347 0 00-.033.175c0 .08.022.179.067.295a35.765 35.765 0 001.46 2.977c.527.956.984 1.726 1.372 2.309.388.584.784 1.135 1.187 1.652.403.519.67.85.8.996.131.147.234.256.308.329l.28.262c.18.175.443.385.79.63.347.244.731.485 1.153.722.422.237.912.43 1.472.58.56.15 1.105.21 1.635.18h1.287c.261-.022.459-.102.593-.24l.045-.055a.714.714 0 00.084-.202c.026-.091.04-.192.04-.301a3.522 3.522 0 01.072-.848c.056-.252.12-.442.19-.57a1.394 1.394 0 01.432-.48.745.745 0 01.089-.04c.179-.057.39 0 .633.17.242.172.47.384.683.636.212.251.468.534.766.847.3.314.56.547.784.701l.224.131c.15.088.344.168.582.241.239.073.448.091.627.055l2.866-.044c.284 0 .504-.046.66-.137.157-.091.25-.191.28-.3a.828.828 0 00.006-.373 1.352 1.352 0 00-.078-.29z" fill="#616567"/></g><defs><clipPath id="clip0"><path fill="#fff" transform="translate(.887 .977)" d="M0 0h21.503v12.612H0z"/></clipPath></defs></svg>