<svg width="14" height="23" fill="none" xmlns="http://www.w3.org/2000/svg"><g clip-path="url(#clip0)"><path d="M12.918.675L9.906.671c-3.383 0-5.57 2.132-5.57 5.431v2.505H1.308a.462.462 0 00-.473.45v3.628c0 .25.212.45.473.45h3.028v9.156c0 .249.212.45.474.45h3.95a.462.462 0 00.474-.45v-9.155h3.54a.462.462 0 00.474-.45l.001-3.629a.44.44 0 00-.138-.318.486.486 0 00-.335-.132H9.234V6.484c0-1.02.256-1.539 1.655-1.539h2.028a.462.462 0 00.473-.45v-3.37a.462.462 0 00-.472-.45z" fill="#616567"/></g><defs><clipPath id="clip0"><path fill="#fff" transform="translate(.835 .67)" d="M0 0h12.902v22.07H0z"/></clipPath></defs></svg>