<svg width="21" height="17" fill="none" xmlns="http://www.w3.org/2000/svg"><g clip-path="url(#clip0)"><path d="M20.384 2.649c-.762.32-1.523.52-2.284.6.86-.504 1.44-1.216 1.744-2.136a7.896 7.896 0 01-2.518.936C16.54 1.232 15.574.824 14.428.824c-1.097 0-2.032.378-2.806 1.135-.773.756-1.16 1.67-1.16 2.742 0 .288.033.584.098.888a11.25 11.25 0 01-4.562-1.194 11.199 11.199 0 01-3.616-2.863c-.36.6-.54 1.253-.54 1.957 0 .664.16 1.28.479 1.848a3.889 3.889 0 001.289 1.38 4.003 4.003 0 01-1.793-.491v.048c0 .936.301 1.758.903 2.466a3.919 3.919 0 002.278 1.339 4.199 4.199 0 01-1.044.132c-.23 0-.48-.02-.75-.06a3.8 3.8 0 001.4 1.914c.68.5 1.45.758 2.31.775-1.442 1.104-3.083 1.656-4.925 1.656a8.64 8.64 0 01-.958-.048c1.842 1.16 3.872 1.74 6.09 1.74 1.409 0 2.731-.218 3.967-.654 1.236-.436 2.292-1.02 3.168-1.752a11.816 11.816 0 002.266-2.527 11.156 11.156 0 001.418-2.983 10.792 10.792 0 00.454-3.619 8.207 8.207 0 001.99-2.004z" fill="#616567"/></g><defs><clipPath id="clip0"><path fill="#fff" transform="translate(.244 .824)" d="M0 0h20.428v15.764H0z"/></clipPath></defs></svg>