<svg width="22" height="16" fill="none" xmlns="http://www.w3.org/2000/svg"><g clip-path="url(#clip0)"><path d="M20.53 2.08c-.738-.856-2.1-1.206-4.7-1.206H6.393c-2.66 0-4.044.372-4.778 1.284-.717.89-.717 2.2-.717 4.014v3.457c0 3.514.85 5.298 5.495 5.298h9.438c2.255 0 3.504-.309 4.313-1.065.828-.775 1.182-2.041 1.182-4.233V6.172c0-1.913-.055-3.231-.796-4.092zm-6.517 6.298l-4.286 2.189a.671.671 0 01-.646-.02.641.641 0 01-.318-.55V5.63a.64.64 0 01.317-.55.672.672 0 01.646-.021l4.286 2.175c.218.11.354.33.355.57a.645.645 0 01-.354.573z" fill="#616567"/></g><defs><clipPath id="clip0"><path fill="#fff" transform="translate(.898 .874)" d="M0 0h20.428v14.713H0z"/></clipPath></defs></svg>