<svg width="40" height="40" fill="none" xmlns="http://www.w3.org/2000/svg"><path d="M39.99 7.456c.002-.016.007-.032.008-.048a.7.7 0 00-.007-.149l-.001-.037a.666.666 0 00-.067-.193L39.905 7c-.002-.002-.002-.004-.002-.006l-.004-.004c-.004-.008-.008-.016-.013-.022a.658.658 0 00-.147-.153c-.013-.01-.027-.015-.04-.024a.639.639 0 00-.158-.077c-.025-.008-.05-.012-.074-.017a.644.644 0 00-.227-.007c-.017.003-.034 0-.051.004L.53 14.683a.666.666 0 00-.176 1.24l11.076 5.843 1.943 10.78v.025a.627.627 0 00.013.236c.015.063.04.122.073.178.007.01.007.023.014.034.002.004.005.006.008.009.009.013.02.023.03.035a.678.678 0 00.102.104l.016.017c.01.007.022.009.032.016a.68.68 0 00.127.066l.053.02a.68.68 0 00.185.029h.002l.008-.001h.034a.662.662 0 00.474-.209l7.378-4.919 7.726 5.022a.67.67 0 00.572.073.667.667 0 00.415-.402l9.321-25.3a.603.603 0 00.022-.07l.006-.03.004-.023zm-7.714 4.251L16.297 23.456c-.026.02-.047.043-.07.066-.008.008-.017.014-.024.023a.64.64 0 00-.04.047l-.031.05a.675.675 0 00-.061.125c-.004.008-.009.015-.012.024 0 .002-.003.004-.004.006l-1.831 5.952-1.451-8.052 19.503-9.99zm-17.02 19.324l1.816-5.997 2.826 1.838.808.525-2.746 1.83-2.704 1.804zM34.66 8.989L12.035 20.58l-9.417-4.97L34.66 8.99zm-4.985 22.648l-10.26-6.668-1.553-1.01L37.944 9.192l-8.269 22.445z" fill="#000"/></svg>