<svg width="40" height="40" fill="none" xmlns="http://www.w3.org/2000/svg"><path d="M0 8.422h10.708a4.882 4.882 0 01-.883-2.812c0-1.315.509-2.549 1.433-3.473a4.918 4.918 0 016.947 0l1.985 1.985 1.985-1.985a4.918 4.918 0 016.946 0 4.878 4.878 0 011.434 3.473 4.883 4.883 0 01-.883 2.812H40v9.825h-3.509V39.3H2.807V18.247H0V8.422zM17.213 3.13a3.513 3.513 0 00-4.963 0 3.486 3.486 0 00-1.022 2.481c0 .94.364 1.822 1.023 2.481l.33.331h9.925l-3.308-3.308-1.985-1.985zm10.916 4.962a3.484 3.484 0 001.023-2.48c0-.942-.364-1.822-1.023-2.482a3.513 3.513 0 00-4.962 0l-1.985 1.985 2.481 2.481c.145.145.279.31.408.484.038.05.075.106.111.16.043.062.087.117.127.183h3.489l.331-.33zm10.467 8.752V9.826H20.351v7.017h18.245zm-18.245 1.404v8.421h14.737v-8.421H20.35zm14.737 9.825H20.35v9.824h14.737v-9.825zm-16.14 9.824v-9.825H4.21v9.825h14.736zM4.21 26.668h14.736v-8.421H4.211v8.421zm-2.807-9.825h17.543V9.826H1.404v7.017z" fill="#000"/></svg>